<svg width="17" height="4" viewBox="0 0 17 4" fill="none" xmlns="http://www.w3.org/2000/svg">
<path fill-rule="evenodd" clip-rule="evenodd" d="M2.25 4C3.2165 4 4 3.2165 4 2.25C4 1.2835 3.2165 0.5 2.25 0.5C1.2835 0.5 0.5 1.2835 0.5 2.25C0.5 3.2165 1.2835 4 2.25 4Z" fill="#929FB8"/>
<path fill-rule="evenodd" clip-rule="evenodd" d="M8.75 4C9.7165 4 10.5 3.2165 10.5 2.25C10.5 1.2835 9.7165 0.5 8.75 0.5C7.7835 0.5 7 1.2835 7 2.25C7 3.2165 7.7835 4 8.75 4Z" fill="#929FB8"/>
<path fill-rule="evenodd" clip-rule="evenodd" d="M15.25 4C16.2165 4 17 3.2165 17 2.25C17 1.2835 16.2165 0.5 15.25 0.5C14.2835 0.5 13.5 1.2835 13.5 2.25C13.5 3.2165 14.2835 4 15.25 4Z" fill="#929FB8"/>
</svg>
